<mxfile host="app.diagrams.net" agent="Mozilla/5.0 (Windows NT 10.0; Win64; x64) AppleWebKit/537.36 (KHTML, like Gecko) Chrome/131.0.0.0 Safari/537.36" version="26.0.6">
  <diagram name="PÃ¡gina-1" id="fAYhxg13kzB0MvQ-sUTB">
    <mxGraphModel dx="2049" dy="1103" grid="1" gridSize="10" guides="1" tooltips="1" connect="0" arrows="0" fold="1" page="1" pageScale="1" pageWidth="1654" pageHeight="1169" math="0" shadow="0">
      <root>
        <mxCell id="0" />
        <mxCell id="1" parent="0" />
        <mxCell id="lQseuszwsxJTJ84V4q3q-17" value="" style="rounded=0;whiteSpace=wrap;html=1;" vertex="1" parent="1">
          <mxGeometry x="120" y="200" width="120" height="240" as="geometry" />
        </mxCell>
        <mxCell id="lQseuszwsxJTJ84V4q3q-18" value="&lt;font style=&quot;font-size: 14px;&quot;&gt;Sync[4]&lt;/font&gt;" style="text;html=1;align=center;verticalAlign=middle;whiteSpace=wrap;rounded=0;" vertex="1" parent="1">
          <mxGeometry x="180" y="410" width="60" height="30" as="geometry" />
        </mxCell>
        <mxCell id="lQseuszwsxJTJ84V4q3q-19" value="clk" style="text;html=1;align=center;verticalAlign=middle;whiteSpace=wrap;rounded=0;" vertex="1" parent="1">
          <mxGeometry x="140" y="420" width="20" height="10" as="geometry" />
        </mxCell>
        <mxCell id="lQseuszwsxJTJ84V4q3q-20" value="" style="endArrow=none;html=1;rounded=0;" edge="1" parent="1">
          <mxGeometry width="50" height="50" relative="1" as="geometry">
            <mxPoint x="70" y="240" as="sourcePoint" />
            <mxPoint x="120" y="240" as="targetPoint" />
          </mxGeometry>
        </mxCell>
        <mxCell id="lQseuszwsxJTJ84V4q3q-21" value="" style="endArrow=none;html=1;rounded=0;" edge="1" parent="1">
          <mxGeometry width="50" height="50" relative="1" as="geometry">
            <mxPoint x="70" y="360" as="sourcePoint" />
            <mxPoint x="120" y="360" as="targetPoint" />
          </mxGeometry>
        </mxCell>
        <mxCell id="lQseuszwsxJTJ84V4q3q-22" value="" style="endArrow=none;html=1;rounded=0;" edge="1" parent="1">
          <mxGeometry width="50" height="50" relative="1" as="geometry">
            <mxPoint x="70" y="320" as="sourcePoint" />
            <mxPoint x="120" y="320" as="targetPoint" />
          </mxGeometry>
        </mxCell>
        <mxCell id="lQseuszwsxJTJ84V4q3q-23" value="" style="endArrow=none;html=1;rounded=0;" edge="1" parent="1">
          <mxGeometry width="50" height="50" relative="1" as="geometry">
            <mxPoint x="70" y="280" as="sourcePoint" />
            <mxPoint x="120" y="280" as="targetPoint" />
          </mxGeometry>
        </mxCell>
        <mxCell id="lQseuszwsxJTJ84V4q3q-24" value="" style="endArrow=none;html=1;rounded=0;entryX=0.258;entryY=0.233;entryDx=0;entryDy=0;entryPerimeter=0;" edge="1" parent="1">
          <mxGeometry width="50" height="50" relative="1" as="geometry">
            <mxPoint x="240" y="300" as="sourcePoint" />
            <mxPoint x="319.94000000000005" y="299.8000000000002" as="targetPoint" />
          </mxGeometry>
        </mxCell>
        <mxCell id="lQseuszwsxJTJ84V4q3q-25" value="" style="rounded=0;whiteSpace=wrap;html=1;" vertex="1" parent="1">
          <mxGeometry x="320" y="200" width="120" height="240" as="geometry" />
        </mxCell>
        <mxCell id="lQseuszwsxJTJ84V4q3q-26" value="&lt;font style=&quot;font-size: 14px;&quot;&gt;Edge[4]&lt;/font&gt;" style="text;html=1;align=center;verticalAlign=middle;whiteSpace=wrap;rounded=0;" vertex="1" parent="1">
          <mxGeometry x="380" y="410" width="60" height="30" as="geometry" />
        </mxCell>
        <mxCell id="lQseuszwsxJTJ84V4q3q-27" value="clk" style="text;html=1;align=center;verticalAlign=middle;whiteSpace=wrap;rounded=0;" vertex="1" parent="1">
          <mxGeometry x="340" y="420" width="20" height="10" as="geometry" />
        </mxCell>
        <mxCell id="lQseuszwsxJTJ84V4q3q-28" value="" style="endArrow=none;html=1;rounded=0;" edge="1" parent="1">
          <mxGeometry width="50" height="50" relative="1" as="geometry">
            <mxPoint x="350" y="450" as="sourcePoint" />
            <mxPoint x="350" y="435" as="targetPoint" />
          </mxGeometry>
        </mxCell>
        <mxCell id="lQseuszwsxJTJ84V4q3q-29" value="" style="endArrow=none;html=1;rounded=0;" edge="1" parent="1">
          <mxGeometry width="50" height="50" relative="1" as="geometry">
            <mxPoint x="150" y="450" as="sourcePoint" />
            <mxPoint x="150" y="435" as="targetPoint" />
          </mxGeometry>
        </mxCell>
        <mxCell id="lQseuszwsxJTJ84V4q3q-31" value="" style="endArrow=none;html=1;rounded=0;" edge="1" parent="1">
          <mxGeometry width="50" height="50" relative="1" as="geometry">
            <mxPoint x="270" y="320" as="sourcePoint" />
            <mxPoint x="290" y="280" as="targetPoint" />
          </mxGeometry>
        </mxCell>
        <mxCell id="lQseuszwsxJTJ84V4q3q-32" value="" style="rounded=0;whiteSpace=wrap;html=1;" vertex="1" parent="1">
          <mxGeometry x="520" y="200" width="120" height="240" as="geometry" />
        </mxCell>
        <mxCell id="lQseuszwsxJTJ84V4q3q-33" value="" style="endArrow=none;html=1;rounded=0;entryX=0.258;entryY=0.233;entryDx=0;entryDy=0;entryPerimeter=0;" edge="1" parent="1">
          <mxGeometry width="50" height="50" relative="1" as="geometry">
            <mxPoint x="440" y="300" as="sourcePoint" />
            <mxPoint x="519.94" y="299.8000000000002" as="targetPoint" />
          </mxGeometry>
        </mxCell>
        <mxCell id="lQseuszwsxJTJ84V4q3q-34" value="" style="endArrow=none;html=1;rounded=0;" edge="1" parent="1">
          <mxGeometry width="50" height="50" relative="1" as="geometry">
            <mxPoint x="470" y="320" as="sourcePoint" />
            <mxPoint x="490" y="280" as="targetPoint" />
          </mxGeometry>
        </mxCell>
        <mxCell id="lQseuszwsxJTJ84V4q3q-35" value="&lt;font style=&quot;font-size: 14px;&quot;&gt;Petition&lt;/font&gt;" style="text;html=1;align=center;verticalAlign=middle;whiteSpace=wrap;rounded=0;" vertex="1" parent="1">
          <mxGeometry x="585" y="410" width="55" height="30" as="geometry" />
        </mxCell>
        <mxCell id="lQseuszwsxJTJ84V4q3q-37" value="reset" style="text;html=1;align=center;verticalAlign=middle;whiteSpace=wrap;rounded=0;" vertex="1" parent="1">
          <mxGeometry x="559" y="420" width="20" height="10" as="geometry" />
        </mxCell>
        <mxCell id="lQseuszwsxJTJ84V4q3q-38" value="" style="endArrow=none;html=1;rounded=0;" edge="1" parent="1">
          <mxGeometry width="50" height="50" relative="1" as="geometry">
            <mxPoint x="568" y="450" as="sourcePoint" />
            <mxPoint x="568" y="435" as="targetPoint" />
          </mxGeometry>
        </mxCell>
        <mxCell id="lQseuszwsxJTJ84V4q3q-39" value="" style="rounded=0;whiteSpace=wrap;html=1;" vertex="1" parent="1">
          <mxGeometry x="720" y="200" width="120" height="240" as="geometry" />
        </mxCell>
        <mxCell id="lQseuszwsxJTJ84V4q3q-40" value="" style="rounded=0;whiteSpace=wrap;html=1;" vertex="1" parent="1">
          <mxGeometry x="920" y="200" width="120" height="240" as="geometry" />
        </mxCell>
        <mxCell id="lQseuszwsxJTJ84V4q3q-41" value="" style="rounded=0;whiteSpace=wrap;html=1;" vertex="1" parent="1">
          <mxGeometry x="720" y="80" width="120" height="80" as="geometry" />
        </mxCell>
        <mxCell id="lQseuszwsxJTJ84V4q3q-42" value="&lt;font style=&quot;font-size: 14px;&quot;&gt;StDeci&lt;/font&gt;" style="text;html=1;align=center;verticalAlign=middle;whiteSpace=wrap;rounded=0;" vertex="1" parent="1">
          <mxGeometry x="790" y="130" width="50" height="30" as="geometry" />
        </mxCell>
        <mxCell id="lQseuszwsxJTJ84V4q3q-43" value="&lt;span style=&quot;font-size: 14px;&quot;&gt;Gestor&lt;/span&gt;" style="text;html=1;align=center;verticalAlign=middle;whiteSpace=wrap;rounded=0;" vertex="1" parent="1">
          <mxGeometry x="790" y="410" width="50" height="30" as="geometry" />
        </mxCell>
        <mxCell id="lQseuszwsxJTJ84V4q3q-44" value="&lt;font style=&quot;font-size: 14px;&quot;&gt;FMS&lt;/font&gt;" style="text;html=1;align=center;verticalAlign=middle;whiteSpace=wrap;rounded=0;" vertex="1" parent="1">
          <mxGeometry x="990" y="410" width="60" height="30" as="geometry" />
        </mxCell>
        <mxCell id="lQseuszwsxJTJ84V4q3q-45" value="" style="endArrow=none;html=1;rounded=0;entryX=0.258;entryY=0.233;entryDx=0;entryDy=0;entryPerimeter=0;" edge="1" parent="1">
          <mxGeometry width="50" height="50" relative="1" as="geometry">
            <mxPoint x="640" y="300" as="sourcePoint" />
            <mxPoint x="719.94" y="299.8000000000002" as="targetPoint" />
          </mxGeometry>
        </mxCell>
        <mxCell id="lQseuszwsxJTJ84V4q3q-46" value="" style="endArrow=none;html=1;rounded=0;" edge="1" parent="1">
          <mxGeometry width="50" height="50" relative="1" as="geometry">
            <mxPoint x="670" y="320" as="sourcePoint" />
            <mxPoint x="690" y="280" as="targetPoint" />
          </mxGeometry>
        </mxCell>
        <mxCell id="lQseuszwsxJTJ84V4q3q-49" value="" style="endArrow=none;html=1;rounded=0;entryX=0.258;entryY=0.233;entryDx=0;entryDy=0;entryPerimeter=0;" edge="1" parent="1">
          <mxGeometry width="50" height="50" relative="1" as="geometry">
            <mxPoint x="840.06" y="300" as="sourcePoint" />
            <mxPoint x="920" y="299.8000000000002" as="targetPoint" />
          </mxGeometry>
        </mxCell>
        <mxCell id="lQseuszwsxJTJ84V4q3q-50" value="" style="endArrow=none;html=1;rounded=0;" edge="1" parent="1">
          <mxGeometry width="50" height="50" relative="1" as="geometry">
            <mxPoint x="870.06" y="320" as="sourcePoint" />
            <mxPoint x="890.06" y="280" as="targetPoint" />
          </mxGeometry>
        </mxCell>
        <mxCell id="lQseuszwsxJTJ84V4q3q-51" value="" style="endArrow=none;html=1;rounded=0;entryX=1;entryY=0.5;entryDx=0;entryDy=0;entryPerimeter=0;" edge="1" parent="1">
          <mxGeometry width="50" height="50" relative="1" as="geometry">
            <mxPoint x="880" y="300" as="sourcePoint" />
            <mxPoint x="840" y="100" as="targetPoint" />
            <Array as="points">
              <mxPoint x="880" y="100" />
            </Array>
          </mxGeometry>
        </mxCell>
        <mxCell id="lQseuszwsxJTJ84V4q3q-52" value="" style="endArrow=none;html=1;rounded=0;" edge="1" parent="1">
          <mxGeometry width="50" height="50" relative="1" as="geometry">
            <mxPoint x="720" y="240" as="sourcePoint" />
            <mxPoint x="720" y="120" as="targetPoint" />
            <Array as="points">
              <mxPoint x="680" y="240" />
              <mxPoint x="680" y="120" />
            </Array>
          </mxGeometry>
        </mxCell>
        <mxCell id="lQseuszwsxJTJ84V4q3q-53" value="" style="rounded=0;whiteSpace=wrap;html=1;" vertex="1" parent="1">
          <mxGeometry x="720" y="480" width="120" height="160" as="geometry" />
        </mxCell>
        <mxCell id="lQseuszwsxJTJ84V4q3q-54" value="Posicion" style="text;html=1;align=center;verticalAlign=middle;whiteSpace=wrap;rounded=0;" vertex="1" parent="1">
          <mxGeometry x="780" y="610" width="60" height="30" as="geometry" />
        </mxCell>
        <mxCell id="lQseuszwsxJTJ84V4q3q-55" value="" style="endArrow=none;html=1;rounded=0;strokeColor=light-dark(#87640F,#22A3A3);" edge="1" parent="1">
          <mxGeometry width="50" height="50" relative="1" as="geometry">
            <mxPoint x="1040" y="300" as="sourcePoint" />
            <mxPoint x="1120" y="300" as="targetPoint" />
            <Array as="points">
              <mxPoint x="1080" y="300" />
            </Array>
          </mxGeometry>
        </mxCell>
        <mxCell id="lQseuszwsxJTJ84V4q3q-56" value="" style="endArrow=none;html=1;rounded=0;strokeColor=light-dark(#87640F,#22A3A3);" edge="1" parent="1">
          <mxGeometry width="50" height="50" relative="1" as="geometry">
            <mxPoint x="1070" y="318.75" as="sourcePoint" />
            <mxPoint x="1090" y="278.75" as="targetPoint" />
          </mxGeometry>
        </mxCell>
        <mxCell id="lQseuszwsxJTJ84V4q3q-57" value="" style="endArrow=none;html=1;rounded=0;strokeColor=light-dark(#00ff00, #ededed);" edge="1" parent="1">
          <mxGeometry width="50" height="50" relative="1" as="geometry">
            <mxPoint x="1040" y="240" as="sourcePoint" />
            <mxPoint x="522" y="240" as="targetPoint" />
            <Array as="points">
              <mxPoint x="1080" y="240" />
              <mxPoint x="1080" y="60" />
              <mxPoint x="480" y="60" />
              <mxPoint x="480" y="240" />
            </Array>
          </mxGeometry>
        </mxCell>
        <mxCell id="lQseuszwsxJTJ84V4q3q-58" value="" style="endArrow=none;html=1;rounded=0;strokeColor=light-dark(#00ff00, #ededed);" edge="1" parent="1">
          <mxGeometry width="50" height="50" relative="1" as="geometry">
            <mxPoint x="1080" y="240" as="sourcePoint" />
            <mxPoint x="1120" y="240" as="targetPoint" />
          </mxGeometry>
        </mxCell>
        <mxCell id="lQseuszwsxJTJ84V4q3q-59" value="" style="endArrow=none;html=1;rounded=0;exitX=0.963;exitY=0.483;exitDx=0;exitDy=0;exitPerimeter=0;strokeColor=light-dark(#87640F,#22A3A3);" edge="1" parent="1" source="lQseuszwsxJTJ84V4q3q-100">
          <mxGeometry width="50" height="50" relative="1" as="geometry">
            <mxPoint x="850" y="560" as="sourcePoint" />
            <mxPoint x="1080" y="300" as="targetPoint" />
            <Array as="points">
              <mxPoint x="1080" y="560" />
            </Array>
          </mxGeometry>
        </mxCell>
        <mxCell id="lQseuszwsxJTJ84V4q3q-64" value="clk" style="text;html=1;align=center;verticalAlign=middle;whiteSpace=wrap;rounded=0;" vertex="1" parent="1">
          <mxGeometry x="530" y="420" width="20" height="10" as="geometry" />
        </mxCell>
        <mxCell id="lQseuszwsxJTJ84V4q3q-65" value="" style="endArrow=none;html=1;rounded=0;" edge="1" parent="1">
          <mxGeometry width="50" height="50" relative="1" as="geometry">
            <mxPoint x="540" y="450" as="sourcePoint" />
            <mxPoint x="540" y="435" as="targetPoint" />
          </mxGeometry>
        </mxCell>
        <mxCell id="lQseuszwsxJTJ84V4q3q-68" value="clk" style="text;html=1;align=center;verticalAlign=middle;whiteSpace=wrap;rounded=0;" vertex="1" parent="1">
          <mxGeometry x="760" y="620" width="20" height="10" as="geometry" />
        </mxCell>
        <mxCell id="lQseuszwsxJTJ84V4q3q-69" value="" style="endArrow=none;html=1;rounded=0;" edge="1" parent="1">
          <mxGeometry width="50" height="50" relative="1" as="geometry">
            <mxPoint x="770" y="650" as="sourcePoint" />
            <mxPoint x="770" y="635" as="targetPoint" />
          </mxGeometry>
        </mxCell>
        <mxCell id="lQseuszwsxJTJ84V4q3q-70" value="reset" style="text;html=1;align=center;verticalAlign=middle;whiteSpace=wrap;rounded=0;" vertex="1" parent="1">
          <mxGeometry x="731" y="620" width="20" height="10" as="geometry" />
        </mxCell>
        <mxCell id="lQseuszwsxJTJ84V4q3q-71" value="" style="endArrow=none;html=1;rounded=0;" edge="1" parent="1">
          <mxGeometry width="50" height="50" relative="1" as="geometry">
            <mxPoint x="741" y="650" as="sourcePoint" />
            <mxPoint x="741" y="635" as="targetPoint" />
          </mxGeometry>
        </mxCell>
        <mxCell id="lQseuszwsxJTJ84V4q3q-72" value="clk" style="text;html=1;align=center;verticalAlign=middle;whiteSpace=wrap;rounded=0;" vertex="1" parent="1">
          <mxGeometry x="970" y="420" width="20" height="10" as="geometry" />
        </mxCell>
        <mxCell id="lQseuszwsxJTJ84V4q3q-73" value="" style="endArrow=none;html=1;rounded=0;" edge="1" parent="1">
          <mxGeometry width="50" height="50" relative="1" as="geometry">
            <mxPoint x="980" y="450" as="sourcePoint" />
            <mxPoint x="980" y="435" as="targetPoint" />
          </mxGeometry>
        </mxCell>
        <mxCell id="lQseuszwsxJTJ84V4q3q-74" value="reset" style="text;html=1;align=center;verticalAlign=middle;whiteSpace=wrap;rounded=0;" vertex="1" parent="1">
          <mxGeometry x="941" y="420" width="20" height="10" as="geometry" />
        </mxCell>
        <mxCell id="lQseuszwsxJTJ84V4q3q-75" value="" style="endArrow=none;html=1;rounded=0;" edge="1" parent="1">
          <mxGeometry width="50" height="50" relative="1" as="geometry">
            <mxPoint x="951" y="450" as="sourcePoint" />
            <mxPoint x="951" y="435" as="targetPoint" />
          </mxGeometry>
        </mxCell>
        <mxCell id="lQseuszwsxJTJ84V4q3q-76" value="" style="endArrow=none;html=1;rounded=0;entryX=0;entryY=0.5;entryDx=0;entryDy=0;entryPerimeter=0;exitX=0.008;exitY=0.667;exitDx=0;exitDy=0;exitPerimeter=0;strokeColor=#FF0064;" edge="1" parent="1" source="lQseuszwsxJTJ84V4q3q-39" target="lQseuszwsxJTJ84V4q3q-53">
          <mxGeometry width="50" height="50" relative="1" as="geometry">
            <mxPoint x="690" y="400" as="sourcePoint" />
            <mxPoint x="650" y="600" as="targetPoint" />
            <Array as="points">
              <mxPoint x="680" y="360" />
              <mxPoint x="680" y="560" />
            </Array>
          </mxGeometry>
        </mxCell>
        <mxCell id="lQseuszwsxJTJ84V4q3q-77" value="" style="endArrow=none;html=1;rounded=0;strokeColor=light-dark(#0000ff, #ededed);" edge="1" parent="1">
          <mxGeometry width="50" height="50" relative="1" as="geometry">
            <mxPoint x="150" y="770" as="sourcePoint" />
            <mxPoint x="150" y="450" as="targetPoint" />
          </mxGeometry>
        </mxCell>
        <mxCell id="lQseuszwsxJTJ84V4q3q-78" value="" style="endArrow=none;html=1;rounded=0;strokeColor=light-dark(#0000ff, #ededed);" edge="1" parent="1">
          <mxGeometry width="50" height="50" relative="1" as="geometry">
            <mxPoint x="150" y="560" as="sourcePoint" />
            <mxPoint x="350" y="450" as="targetPoint" />
            <Array as="points">
              <mxPoint x="350" y="560" />
            </Array>
          </mxGeometry>
        </mxCell>
        <mxCell id="lQseuszwsxJTJ84V4q3q-79" value="" style="endArrow=none;html=1;rounded=0;strokeColor=light-dark(#0000ff, #ededed);" edge="1" parent="1">
          <mxGeometry width="50" height="50" relative="1" as="geometry">
            <mxPoint x="350" y="560" as="sourcePoint" />
            <mxPoint x="540" y="450" as="targetPoint" />
            <Array as="points">
              <mxPoint x="540" y="560" />
            </Array>
          </mxGeometry>
        </mxCell>
        <mxCell id="lQseuszwsxJTJ84V4q3q-81" value="" style="endArrow=none;html=1;rounded=0;strokeColor=light-dark(#ff0000, #ededed);" edge="1" parent="1">
          <mxGeometry width="50" height="50" relative="1" as="geometry">
            <mxPoint x="570" y="720" as="sourcePoint" />
            <mxPoint x="741" y="650" as="targetPoint" />
            <Array as="points">
              <mxPoint x="741" y="720" />
            </Array>
          </mxGeometry>
        </mxCell>
        <mxCell id="lQseuszwsxJTJ84V4q3q-82" value="" style="endArrow=none;html=1;rounded=0;strokeColor=light-dark(#0000ff, #ededed);" edge="1" parent="1">
          <mxGeometry width="50" height="50" relative="1" as="geometry">
            <mxPoint x="150" y="680" as="sourcePoint" />
            <mxPoint x="980" y="680" as="targetPoint" />
          </mxGeometry>
        </mxCell>
        <mxCell id="lQseuszwsxJTJ84V4q3q-83" value="" style="endArrow=none;html=1;rounded=0;strokeColor=light-dark(#0000ff, #ededed);" edge="1" parent="1">
          <mxGeometry width="50" height="50" relative="1" as="geometry">
            <mxPoint x="980" y="680" as="sourcePoint" />
            <mxPoint x="980" y="450" as="targetPoint" />
          </mxGeometry>
        </mxCell>
        <mxCell id="lQseuszwsxJTJ84V4q3q-84" value="" style="endArrow=none;html=1;rounded=0;strokeColor=#FF0064;" edge="1" parent="1">
          <mxGeometry width="50" height="50" relative="1" as="geometry">
            <mxPoint x="660" y="470" as="sourcePoint" />
            <mxPoint x="700" y="450" as="targetPoint" />
          </mxGeometry>
        </mxCell>
        <mxCell id="lQseuszwsxJTJ84V4q3q-85" value="" style="endArrow=none;html=1;rounded=0;strokeColor=light-dark(#ff0000, #ededed);" edge="1" parent="1">
          <mxGeometry width="50" height="50" relative="1" as="geometry">
            <mxPoint x="568" y="770" as="sourcePoint" />
            <mxPoint x="568" y="450" as="targetPoint" />
          </mxGeometry>
        </mxCell>
        <mxCell id="lQseuszwsxJTJ84V4q3q-86" value="" style="endArrow=none;html=1;rounded=0;strokeColor=light-dark(#ff0000, #ededed);" edge="1" parent="1">
          <mxGeometry width="50" height="50" relative="1" as="geometry">
            <mxPoint x="741" y="720" as="sourcePoint" />
            <mxPoint x="951" y="450" as="targetPoint" />
            <Array as="points">
              <mxPoint x="951" y="720" />
            </Array>
          </mxGeometry>
        </mxCell>
        <mxCell id="lQseuszwsxJTJ84V4q3q-87" value="&lt;font style=&quot;font-size: 10px;&quot;&gt;async(0)&lt;/font&gt;" style="text;html=1;align=center;verticalAlign=middle;whiteSpace=wrap;rounded=0;" vertex="1" parent="1">
          <mxGeometry x="120" y="230" width="50" height="20" as="geometry" />
        </mxCell>
        <mxCell id="lQseuszwsxJTJ84V4q3q-88" value="&lt;font style=&quot;font-size: 10px;&quot;&gt;async(1)&lt;/font&gt;" style="text;html=1;align=center;verticalAlign=middle;whiteSpace=wrap;rounded=0;" vertex="1" parent="1">
          <mxGeometry x="120" y="270" width="50" height="20" as="geometry" />
        </mxCell>
        <mxCell id="lQseuszwsxJTJ84V4q3q-89" value="&lt;font style=&quot;font-size: 10px;&quot;&gt;async(2)&lt;/font&gt;" style="text;html=1;align=center;verticalAlign=middle;whiteSpace=wrap;rounded=0;" vertex="1" parent="1">
          <mxGeometry x="120" y="310" width="50" height="20" as="geometry" />
        </mxCell>
        <mxCell id="lQseuszwsxJTJ84V4q3q-90" value="&lt;font style=&quot;font-size: 10px;&quot;&gt;async(3)&lt;/font&gt;" style="text;html=1;align=center;verticalAlign=middle;whiteSpace=wrap;rounded=0;" vertex="1" parent="1">
          <mxGeometry x="120" y="350" width="50" height="20" as="geometry" />
        </mxCell>
        <mxCell id="lQseuszwsxJTJ84V4q3q-91" value="&lt;font style=&quot;font-size: 10px;&quot;&gt;syncout&lt;/font&gt;" style="text;html=1;align=center;verticalAlign=middle;whiteSpace=wrap;rounded=0;" vertex="1" parent="1">
          <mxGeometry x="190" y="290" width="50" height="20" as="geometry" />
        </mxCell>
        <mxCell id="lQseuszwsxJTJ84V4q3q-92" value="&lt;font style=&quot;font-size: 10px;&quot;&gt;syncin&lt;/font&gt;" style="text;html=1;align=center;verticalAlign=middle;whiteSpace=wrap;rounded=0;" vertex="1" parent="1">
          <mxGeometry x="320" y="290" width="40" height="20" as="geometry" />
        </mxCell>
        <mxCell id="lQseuszwsxJTJ84V4q3q-93" value="&lt;font style=&quot;font-size: 10px;&quot;&gt;edge&lt;/font&gt;" style="text;html=1;align=center;verticalAlign=middle;whiteSpace=wrap;rounded=0;" vertex="1" parent="1">
          <mxGeometry x="390" y="290" width="50" height="20" as="geometry" />
        </mxCell>
        <mxCell id="lQseuszwsxJTJ84V4q3q-94" value="&lt;font style=&quot;font-size: 10px;&quot;&gt;Peticion&lt;/font&gt;" style="text;html=1;align=center;verticalAlign=middle;whiteSpace=wrap;rounded=0;" vertex="1" parent="1">
          <mxGeometry x="520" y="287.5" width="51" height="25" as="geometry" />
        </mxCell>
        <mxCell id="lQseuszwsxJTJ84V4q3q-95" value="&lt;font style=&quot;font-size: 10px;&quot;&gt;petOut&lt;/font&gt;" style="text;html=1;align=center;verticalAlign=middle;whiteSpace=wrap;rounded=0;" vertex="1" parent="1">
          <mxGeometry x="589" y="287.5" width="51" height="25" as="geometry" />
        </mxCell>
        <mxCell id="lQseuszwsxJTJ84V4q3q-96" value="&lt;span style=&quot;font-size: 10px;&quot;&gt;peticion&lt;/span&gt;" style="text;html=1;align=center;verticalAlign=middle;whiteSpace=wrap;rounded=0;" vertex="1" parent="1">
          <mxGeometry x="720" y="287.5" width="51" height="22.5" as="geometry" />
        </mxCell>
        <mxCell id="lQseuszwsxJTJ84V4q3q-97" value="&lt;span style=&quot;font-size: 10px;&quot;&gt;move&lt;/span&gt;" style="text;html=1;align=center;verticalAlign=middle;whiteSpace=wrap;rounded=0;" vertex="1" parent="1">
          <mxGeometry x="720" y="230" width="40" height="20" as="geometry" />
        </mxCell>
        <mxCell id="lQseuszwsxJTJ84V4q3q-98" value="&lt;span style=&quot;font-size: 10px;&quot;&gt;pos&lt;/span&gt;" style="text;html=1;align=center;verticalAlign=middle;whiteSpace=wrap;rounded=0;" vertex="1" parent="1">
          <mxGeometry x="720" y="347.5" width="30" height="22.5" as="geometry" />
        </mxCell>
        <mxCell id="lQseuszwsxJTJ84V4q3q-99" value="&lt;span style=&quot;font-size: 10px;&quot;&gt;pos&lt;/span&gt;" style="text;html=1;align=center;verticalAlign=middle;whiteSpace=wrap;rounded=0;" vertex="1" parent="1">
          <mxGeometry x="720" y="548.75" width="30" height="22.5" as="geometry" />
        </mxCell>
        <mxCell id="lQseuszwsxJTJ84V4q3q-100" value="&lt;span style=&quot;font-size: 10px;&quot;&gt;move&lt;/span&gt;" style="text;html=1;align=center;verticalAlign=middle;whiteSpace=wrap;rounded=0;" vertex="1" parent="1">
          <mxGeometry x="810" y="548.75" width="30" height="22.5" as="geometry" />
        </mxCell>
        <mxCell id="lQseuszwsxJTJ84V4q3q-103" value="" style="endArrow=classic;html=1;rounded=0;strokeWidth=1;" edge="1" parent="1">
          <mxGeometry width="50" height="50" relative="1" as="geometry">
            <mxPoint x="830" y="490" as="sourcePoint" />
            <mxPoint x="790" y="490" as="targetPoint" />
          </mxGeometry>
        </mxCell>
        <mxCell id="lQseuszwsxJTJ84V4q3q-104" value="" style="endArrow=classic;html=1;rounded=0;strokeWidth=1;" edge="1" parent="1">
          <mxGeometry width="50" height="50" relative="1" as="geometry">
            <mxPoint x="771" y="144.71" as="sourcePoint" />
            <mxPoint x="731" y="144.71" as="targetPoint" />
          </mxGeometry>
        </mxCell>
        <mxCell id="lQseuszwsxJTJ84V4q3q-105" value="&lt;font style=&quot;font-size: 10px;&quot;&gt;rm&lt;/font&gt;" style="text;html=1;align=center;verticalAlign=middle;whiteSpace=wrap;rounded=0;" vertex="1" parent="1">
          <mxGeometry x="520" y="230" width="30" height="20" as="geometry" />
        </mxCell>
        <mxCell id="lQseuszwsxJTJ84V4q3q-106" value="&lt;span style=&quot;font-size: 10px;&quot;&gt;decision&lt;/span&gt;" style="text;html=1;align=center;verticalAlign=middle;whiteSpace=wrap;rounded=0;" vertex="1" parent="1">
          <mxGeometry x="789" y="287.5" width="51" height="22.5" as="geometry" />
        </mxCell>
        <mxCell id="lQseuszwsxJTJ84V4q3q-107" value="&lt;span style=&quot;font-size: 10px;&quot;&gt;stDe&lt;/span&gt;&lt;span style=&quot;color: rgba(0, 0, 0, 0); font-family: monospace; font-size: 0px; text-align: start; text-wrap-mode: nowrap;&quot;&gt;%3CmxGraphModel%3E%3Croot%3E%3CmxCell%20id%3D%220%22%2F%3E%3CmxCell%20id%3D%221%22%20parent%3D%220%22%2F%3E%3CmxCell%20id%3D%222%22%20value%3D%22%26lt%3Bspan%20style%3D%26quot%3Bfont-size%3A%2010px%3B%26quot%3B%26gt%3Bmove%26lt%3B%2Fspan%26gt%3B%22%20style%3D%22text%3Bhtml%3D1%3Balign%3Dcenter%3BverticalAlign%3Dmiddle%3BwhiteSpace%3Dwrap%3Brounded%3D0%3B%22%20vertex%3D%221%22%20parent%3D%221%22%3E%3CmxGeometry%20x%3D%22720%22%20y%3D%22230%22%20width%3D%2240%22%20height%3D%2220%22%20as%3D%22geometry%22%2F%3E%3C%2FmxCell%3E%3C%2Froot%3E%3C%2FmxGraphModel%3E&lt;/span&gt;&lt;span style=&quot;font-size: 10px;&quot;&gt;ci&lt;/span&gt;&lt;span style=&quot;color: rgba(0, 0, 0, 0); font-family: monospace; font-size: 0px; text-align: start; text-wrap-mode: nowrap;&quot;&gt;%3CmxGraphModel%3E%3Croot%3E%3CmxCell%20id%3D%220%22%2F%3E%3CmxCell%20id%3D%221%22%20parent%3D%220%22%2F%3E%3CmxCell%20id%3D%222%22%20value%3D%22%26lt%3Bspan%20style%3D%26quot%3Bfont-size%3A%2010px%3B%26quot%3B%26gt%3Bmove%26lt%3B%2Fspan%26gt%3B%22%20style%3D%22text%3Bhtml%3D1%3Balign%3Dcenter%3BverticalAlign%3Dmiddle%3BwhiteSpace%3Dwrap%3Brounded%3D0%3B%22%20vertex%3D%221%22%20parent%3D%221%22%3E%3CmxGeometry%20x%3D%22720%22%20y%3D%22230%22%20width%3D%2240%22%20height%3D%2220%22%20as%3D%22geometry%22%2F%3E%3C%2FmxCell%3E%3C%2Froot%3E%3C%2FmxGraphModel%3E&lt;/span&gt;" style="text;html=1;align=center;verticalAlign=middle;whiteSpace=wrap;rounded=0;" vertex="1" parent="1">
          <mxGeometry x="721" y="110" width="40" height="20" as="geometry" />
        </mxCell>
        <mxCell id="lQseuszwsxJTJ84V4q3q-108" value="&lt;span style=&quot;font-size: 10px;&quot;&gt;move&lt;/span&gt;" style="text;html=1;align=center;verticalAlign=middle;whiteSpace=wrap;rounded=0;" vertex="1" parent="1">
          <mxGeometry x="800" y="90" width="40" height="20" as="geometry" />
        </mxCell>
        <mxCell id="lQseuszwsxJTJ84V4q3q-109" value="" style="endArrow=none;html=1;rounded=0;strokeColor=light-dark(#0000ff, #ededed);" edge="1" parent="1">
          <mxGeometry width="50" height="50" relative="1" as="geometry">
            <mxPoint x="770" y="680" as="sourcePoint" />
            <mxPoint x="770" y="650" as="targetPoint" />
          </mxGeometry>
        </mxCell>
        <mxCell id="lQseuszwsxJTJ84V4q3q-110" value="&lt;font style=&quot;font-size: 10px;&quot;&gt;Puerta&lt;/font&gt;" style="text;html=1;align=center;verticalAlign=middle;whiteSpace=wrap;rounded=0;" vertex="1" parent="1">
          <mxGeometry x="1000" y="230" width="40" height="20" as="geometry" />
        </mxCell>
        <mxCell id="lQseuszwsxJTJ84V4q3q-111" value="&lt;font style=&quot;font-size: 10px;&quot;&gt;Motor&lt;/font&gt;" style="text;html=1;align=center;verticalAlign=middle;whiteSpace=wrap;rounded=0;container=1;" vertex="1" parent="1">
          <mxGeometry x="1000" y="288.75" width="40" height="20" as="geometry" />
        </mxCell>
        <mxCell id="lQseuszwsxJTJ84V4q3q-112" value="&lt;font style=&quot;font-size: 10px;&quot;&gt;Decision&lt;/font&gt;" style="text;html=1;align=center;verticalAlign=middle;whiteSpace=wrap;rounded=0;" vertex="1" parent="1">
          <mxGeometry x="920" y="290" width="49" height="20" as="geometry" />
        </mxCell>
        <mxCell id="lQseuszwsxJTJ84V4q3q-113" value="" style="endArrow=none;html=1;rounded=0;" edge="1" parent="1">
          <mxGeometry width="50" height="50" relative="1" as="geometry">
            <mxPoint x="740" y="85" as="sourcePoint" />
            <mxPoint x="740" y="70" as="targetPoint" />
          </mxGeometry>
        </mxCell>
        <mxCell id="lQseuszwsxJTJ84V4q3q-114" value="&lt;font style=&quot;font-size: 10px;&quot;&gt;clk&lt;/font&gt;" style="text;html=1;align=center;verticalAlign=middle;whiteSpace=wrap;rounded=0;" vertex="1" parent="1">
          <mxGeometry x="725" y="85" width="30" height="10" as="geometry" />
        </mxCell>
        <mxCell id="lQseuszwsxJTJ84V4q3q-115" value="" style="endArrow=none;html=1;rounded=0;strokeColor=light-dark(#0000ff, #ededed);" edge="1" parent="1">
          <mxGeometry width="50" height="50" relative="1" as="geometry">
            <mxPoint x="740" y="70" as="sourcePoint" />
            <mxPoint x="740" y="30" as="targetPoint" />
          </mxGeometry>
        </mxCell>
        <mxCell id="lQseuszwsxJTJ84V4q3q-121" value="" style="rounded=0;whiteSpace=wrap;html=1;" vertex="1" parent="1">
          <mxGeometry x="1120" y="200" width="120" height="240" as="geometry" />
        </mxCell>
        <mxCell id="lQseuszwsxJTJ84V4q3q-122" value="" style="rounded=0;whiteSpace=wrap;html=1;" vertex="1" parent="1">
          <mxGeometry x="1320" y="200" width="120" height="240" as="geometry" />
        </mxCell>
        <mxCell id="lQseuszwsxJTJ84V4q3q-123" value="" style="endArrow=none;html=1;rounded=0;" edge="1" parent="1">
          <mxGeometry width="50" height="50" relative="1" as="geometry">
            <mxPoint x="1240" y="221.25" as="sourcePoint" />
            <mxPoint x="1320" y="221.25" as="targetPoint" />
            <Array as="points">
              <mxPoint x="1280" y="221.25" />
            </Array>
          </mxGeometry>
        </mxCell>
        <mxCell id="lQseuszwsxJTJ84V4q3q-124" value="" style="endArrow=none;html=1;rounded=0;" edge="1" parent="1">
          <mxGeometry width="50" height="50" relative="1" as="geometry">
            <mxPoint x="1270" y="240" as="sourcePoint" />
            <mxPoint x="1290" y="200" as="targetPoint" />
          </mxGeometry>
        </mxCell>
        <mxCell id="lQseuszwsxJTJ84V4q3q-125" value="" style="endArrow=none;html=1;rounded=0;" edge="1" parent="1">
          <mxGeometry width="50" height="50" relative="1" as="geometry">
            <mxPoint x="1240" y="261.25" as="sourcePoint" />
            <mxPoint x="1320" y="261.25" as="targetPoint" />
            <Array as="points">
              <mxPoint x="1280" y="261.25" />
            </Array>
          </mxGeometry>
        </mxCell>
        <mxCell id="lQseuszwsxJTJ84V4q3q-126" value="" style="endArrow=none;html=1;rounded=0;" edge="1" parent="1">
          <mxGeometry width="50" height="50" relative="1" as="geometry">
            <mxPoint x="1270" y="280" as="sourcePoint" />
            <mxPoint x="1290" y="240" as="targetPoint" />
          </mxGeometry>
        </mxCell>
        <mxCell id="lQseuszwsxJTJ84V4q3q-127" value="" style="endArrow=none;html=1;rounded=0;" edge="1" parent="1">
          <mxGeometry width="50" height="50" relative="1" as="geometry">
            <mxPoint x="1240" y="300" as="sourcePoint" />
            <mxPoint x="1320" y="300" as="targetPoint" />
            <Array as="points">
              <mxPoint x="1280" y="300" />
            </Array>
          </mxGeometry>
        </mxCell>
        <mxCell id="lQseuszwsxJTJ84V4q3q-128" value="" style="endArrow=none;html=1;rounded=0;" edge="1" parent="1">
          <mxGeometry width="50" height="50" relative="1" as="geometry">
            <mxPoint x="1270" y="318.75" as="sourcePoint" />
            <mxPoint x="1290" y="278.75" as="targetPoint" />
          </mxGeometry>
        </mxCell>
        <mxCell id="lQseuszwsxJTJ84V4q3q-129" value="" style="endArrow=none;html=1;rounded=0;strokeColor=#FF0064;" edge="1" parent="1">
          <mxGeometry width="50" height="50" relative="1" as="geometry">
            <mxPoint x="680" y="460" as="sourcePoint" />
            <mxPoint x="1320" y="340" as="targetPoint" />
            <Array as="points">
              <mxPoint x="1280" y="460" />
              <mxPoint x="1280" y="340" />
            </Array>
          </mxGeometry>
        </mxCell>
        <mxCell id="lQseuszwsxJTJ84V4q3q-131" value="" style="endArrow=none;html=1;rounded=0;strokeColor=light-dark(#87640F,#22A3A3);" edge="1" parent="1">
          <mxGeometry width="50" height="50" relative="1" as="geometry">
            <mxPoint x="1080" y="560" as="sourcePoint" />
            <mxPoint x="1490" y="560" as="targetPoint" />
          </mxGeometry>
        </mxCell>
        <mxCell id="lQseuszwsxJTJ84V4q3q-132" value="" style="endArrow=none;html=1;rounded=0;" edge="1" parent="1">
          <mxGeometry width="50" height="50" relative="1" as="geometry">
            <mxPoint x="1440" y="240" as="sourcePoint" />
            <mxPoint x="1490" y="240" as="targetPoint" />
          </mxGeometry>
        </mxCell>
        <mxCell id="lQseuszwsxJTJ84V4q3q-133" value="" style="endArrow=none;html=1;rounded=0;" edge="1" parent="1">
          <mxGeometry width="50" height="50" relative="1" as="geometry">
            <mxPoint x="1440" y="279.58" as="sourcePoint" />
            <mxPoint x="1490" y="279.58" as="targetPoint" />
          </mxGeometry>
        </mxCell>
        <mxCell id="lQseuszwsxJTJ84V4q3q-134" value="" style="endArrow=none;html=1;rounded=0;strokeColor=light-dark(#00ff00, #ededed);" edge="1" parent="1">
          <mxGeometry width="50" height="50" relative="1" as="geometry">
            <mxPoint x="1080" y="160" as="sourcePoint" />
            <mxPoint x="1490" y="160" as="targetPoint" />
          </mxGeometry>
        </mxCell>
        <mxCell id="lQseuszwsxJTJ84V4q3q-135" value="&lt;font style=&quot;font-size: 14px;&quot;&gt;LDec&lt;/font&gt;&lt;span style=&quot;color: rgba(0, 0, 0, 0); font-family: monospace; font-size: 0px; text-align: start; text-wrap-mode: nowrap;&quot;&gt;%3CmxGraphModel%3E%3Croot%3E%3CmxCell%20id%3D%220%22%2F%3E%3CmxCell%20id%3D%221%22%20parent%3D%220%22%2F%3E%3CmxCell%20id%3D%222%22%20value%3D%22%26lt%3Bfont%20style%3D%26quot%3Bfont-size%3A%2014px%3B%26quot%3B%26gt%3BFMS%26lt%3B%2Ffont%26gt%3B%22%20style%3D%22text%3Bhtml%3D1%3Balign%3Dcenter%3BverticalAlign%3Dmiddle%3BwhiteSpace%3Dwrap%3Brounded%3D0%3B%22%20vertex%3D%221%22%20parent%3D%221%22%3E%3CmxGeometry%20x%3D%22990%22%20y%3D%22410%22%20width%3D%2260%22%20height%3D%2230%22%20as%3D%22geometry%22%2F%3E%3C%2FmxCell%3E%3C%2Froot%3E%3C%2FmxGraphModel%3E&lt;/span&gt;" style="text;html=1;align=center;verticalAlign=middle;whiteSpace=wrap;rounded=0;" vertex="1" parent="1">
          <mxGeometry x="1190" y="410" width="50" height="30" as="geometry" />
        </mxCell>
        <mxCell id="lQseuszwsxJTJ84V4q3q-136" value="&lt;font style=&quot;font-size: 14px;&quot;&gt;LGes&lt;/font&gt;" style="text;html=1;align=center;verticalAlign=middle;whiteSpace=wrap;rounded=0;" vertex="1" parent="1">
          <mxGeometry x="1390" y="410" width="50" height="30" as="geometry" />
        </mxCell>
        <mxCell id="lQseuszwsxJTJ84V4q3q-137" value="&lt;font style=&quot;font-size: 10px;&quot;&gt;Mov&lt;span style=&quot;color: rgba(0, 0, 0, 0); font-family: monospace; font-size: 0px; text-align: start; text-wrap-mode: nowrap;&quot;&gt;%3CmxGraphModel%3E%3Croot%3E%3CmxCell%20id%3D%220%22%2F%3E%3CmxCell%20id%3D%221%22%20parent%3D%220%22%2F%3E%3CmxCell%20id%3D%222%22%20value%3D%22%26lt%3Bfont%20style%3D%26quot%3Bfont-size%3A%2010px%3B%26quot%3B%26gt%3BMotor%26lt%3B%2Ffont%26gt%3B%22%20style%3D%22text%3Bhtml%3D1%3Balign%3Dcenter%3BverticalAlign%3Dmiddle%3BwhiteSpace%3Dwrap%3Brounded%3D0%3B%22%20vertex%3D%221%22%20parent%3D%221%22%3E%3CmxGeometry%20x%3D%221000%22%20y%3D%22288.75%22%20width%3D%2240%22%20height%3D%2220%22%20as%3D%22geometry%22%2F%3E%3C%2FmxCell%3E%3C%2Froot%3E%3C%2FmxGraphModel%3E&lt;/span&gt;e&lt;/font&gt;&lt;span style=&quot;color: rgba(0, 0, 0, 0); font-family: monospace; font-size: 0px; text-align: start; text-wrap-mode: nowrap;&quot;&gt;%3CmxGraphModel%3E%3Croot%3E%3CmxCell%20id%3D%220%22%2F%3E%3CmxCell%20id%3D%221%22%20parent%3D%220%22%2F%3E%3CmxCell%20id%3D%222%22%20value%3D%22%26lt%3Bfont%20style%3D%26quot%3Bfont-size%3A%2010px%3B%26quot%3B%26gt%3BMotor%26lt%3B%2Ffont%26gt%3B%22%20style%3D%22text%3Bhtml%3D1%3Balign%3Dcenter%3BverticalAlign%3Dmiddle%3BwhiteSpace%3Dwrap%3Brounded%3D0%3B%22%20vertex%3D%221%22%20parent%3D%221%22%3E%3CmxGeometry%20x%3D%221000%22%20y%3D%22288.75%22%20width%3D%2240%22%20height%3D%2220%22%20as%3D%22geometry%22%2F%3E%3C%2FmxCell%3E%3C%2Froot%3E%3C%2FmxGraphModel%3E&lt;/span&gt;" style="text;html=1;align=center;verticalAlign=middle;whiteSpace=wrap;rounded=0;" vertex="1" parent="1">
          <mxGeometry x="1120" y="290" width="40" height="20" as="geometry" />
        </mxCell>
        <mxCell id="lQseuszwsxJTJ84V4q3q-138" value="&lt;span style=&quot;font-size: 10px;&quot;&gt;Puerta&lt;/span&gt;" style="text;html=1;align=center;verticalAlign=middle;whiteSpace=wrap;rounded=0;" vertex="1" parent="1">
          <mxGeometry x="1120" y="230" width="40" height="20" as="geometry" />
        </mxCell>
        <mxCell id="lQseuszwsxJTJ84V4q3q-139" value="&lt;span style=&quot;font-size: 10px;&quot;&gt;Pos&lt;/span&gt;" style="text;html=1;align=center;verticalAlign=middle;whiteSpace=wrap;rounded=0;" vertex="1" parent="1">
          <mxGeometry x="1120" y="350" width="40" height="20" as="geometry" />
        </mxCell>
        <mxCell id="lQseuszwsxJTJ84V4q3q-140" value="" style="endArrow=none;html=1;rounded=0;strokeColor=#FF0064;" edge="1" parent="1">
          <mxGeometry width="50" height="50" relative="1" as="geometry">
            <mxPoint x="1100" y="460" as="sourcePoint" />
            <mxPoint x="1120" y="360" as="targetPoint" />
            <Array as="points">
              <mxPoint x="1100" y="360" />
            </Array>
          </mxGeometry>
        </mxCell>
        <mxCell id="lQseuszwsxJTJ84V4q3q-141" value="&lt;span style=&quot;font-size: 10px;&quot;&gt;Pos&lt;/span&gt;" style="text;html=1;align=center;verticalAlign=middle;whiteSpace=wrap;rounded=0;" vertex="1" parent="1">
          <mxGeometry x="1320" y="330" width="40" height="20" as="geometry" />
        </mxCell>
        <mxCell id="lQseuszwsxJTJ84V4q3q-142" value="&lt;span style=&quot;font-size: 10px;&quot;&gt;Elev_led&lt;/span&gt;" style="text;html=1;align=center;verticalAlign=middle;whiteSpace=wrap;rounded=0;" vertex="1" parent="1">
          <mxGeometry x="1190" y="210" width="50" height="20" as="geometry" />
        </mxCell>
        <mxCell id="lQseuszwsxJTJ84V4q3q-143" value="&lt;span style=&quot;font-size: 10px;&quot;&gt;Move_led&lt;/span&gt;" style="text;html=1;align=center;verticalAlign=middle;whiteSpace=wrap;rounded=0;" vertex="1" parent="1">
          <mxGeometry x="1190" y="250" width="50" height="20" as="geometry" />
        </mxCell>
        <mxCell id="lQseuszwsxJTJ84V4q3q-144" value="&lt;span style=&quot;font-size: 10px;&quot;&gt;Place_led&lt;/span&gt;" style="text;html=1;align=center;verticalAlign=middle;whiteSpace=wrap;rounded=0;" vertex="1" parent="1">
          <mxGeometry x="1190" y="287.5" width="50" height="20" as="geometry" />
        </mxCell>
        <mxCell id="lQseuszwsxJTJ84V4q3q-145" value="&lt;span style=&quot;font-size: 10px;&quot;&gt;Elev_led&lt;/span&gt;" style="text;html=1;align=center;verticalAlign=middle;whiteSpace=wrap;rounded=0;" vertex="1" parent="1">
          <mxGeometry x="1320" y="211.25" width="50" height="20" as="geometry" />
        </mxCell>
        <mxCell id="lQseuszwsxJTJ84V4q3q-146" value="&lt;span style=&quot;font-size: 10px;&quot;&gt;Move_led&lt;/span&gt;" style="text;html=1;align=center;verticalAlign=middle;whiteSpace=wrap;rounded=0;" vertex="1" parent="1">
          <mxGeometry x="1320" y="251.25" width="50" height="20" as="geometry" />
        </mxCell>
        <mxCell id="lQseuszwsxJTJ84V4q3q-147" value="&lt;span style=&quot;font-size: 10px;&quot;&gt;Place_led&lt;/span&gt;" style="text;html=1;align=center;verticalAlign=middle;whiteSpace=wrap;rounded=0;" vertex="1" parent="1">
          <mxGeometry x="1320" y="288.75" width="50" height="20" as="geometry" />
        </mxCell>
        <mxCell id="lQseuszwsxJTJ84V4q3q-148" value="&lt;span style=&quot;font-size: 10px;&quot;&gt;Display_on&lt;/span&gt;" style="text;html=1;align=center;verticalAlign=middle;whiteSpace=wrap;rounded=0;" vertex="1" parent="1">
          <mxGeometry x="1380" y="231.25" width="60" height="20" as="geometry" />
        </mxCell>
        <mxCell id="lQseuszwsxJTJ84V4q3q-149" value="&lt;span style=&quot;font-size: 10px;&quot;&gt;Led_on&lt;/span&gt;" style="text;html=1;align=center;verticalAlign=middle;whiteSpace=wrap;rounded=0;" vertex="1" parent="1">
          <mxGeometry x="1390" y="267.5" width="50" height="20" as="geometry" />
        </mxCell>
        <mxCell id="lQseuszwsxJTJ84V4q3q-150" value="clk" style="text;html=1;align=center;verticalAlign=middle;whiteSpace=wrap;rounded=0;" vertex="1" parent="1">
          <mxGeometry x="1340" y="420" width="20" height="10" as="geometry" />
        </mxCell>
        <mxCell id="lQseuszwsxJTJ84V4q3q-151" value="" style="endArrow=none;html=1;rounded=0;" edge="1" parent="1">
          <mxGeometry width="50" height="50" relative="1" as="geometry">
            <mxPoint x="1350" y="450" as="sourcePoint" />
            <mxPoint x="1350" y="435" as="targetPoint" />
          </mxGeometry>
        </mxCell>
        <mxCell id="lQseuszwsxJTJ84V4q3q-152" value="" style="endArrow=none;html=1;rounded=0;strokeColor=light-dark(#0000ff, #ededed);" edge="1" parent="1">
          <mxGeometry width="50" height="50" relative="1" as="geometry">
            <mxPoint x="980" y="480" as="sourcePoint" />
            <mxPoint x="1350" y="450" as="targetPoint" />
            <Array as="points">
              <mxPoint x="1350" y="480" />
            </Array>
          </mxGeometry>
        </mxCell>
        <mxCell id="lQseuszwsxJTJ84V4q3q-154" value="" style="swimlane;startSize=0;" vertex="1" parent="1">
          <mxGeometry x="80" y="45" width="1400" height="715" as="geometry" />
        </mxCell>
        <mxCell id="lQseuszwsxJTJ84V4q3q-158" value="&lt;font style=&quot;font-size: 16px;&quot;&gt;TOP&lt;/font&gt;" style="text;html=1;align=center;verticalAlign=middle;whiteSpace=wrap;rounded=0;" vertex="1" parent="lQseuszwsxJTJ84V4q3q-154">
          <mxGeometry x="1340" y="685" width="60" height="30" as="geometry" />
        </mxCell>
        <mxCell id="lQseuszwsxJTJ84V4q3q-155" value="Pulsadores" style="text;html=1;align=center;verticalAlign=middle;whiteSpace=wrap;rounded=0;" vertex="1" parent="1">
          <mxGeometry y="280" width="70" height="40" as="geometry" />
        </mxCell>
        <mxCell id="lQseuszwsxJTJ84V4q3q-156" value="Clock" style="text;html=1;align=center;verticalAlign=middle;whiteSpace=wrap;rounded=0;" vertex="1" parent="1">
          <mxGeometry x="95" y="770" width="110" height="40" as="geometry" />
        </mxCell>
        <mxCell id="lQseuszwsxJTJ84V4q3q-157" value="Reset" style="text;html=1;align=center;verticalAlign=middle;whiteSpace=wrap;rounded=0;" vertex="1" parent="1">
          <mxGeometry x="514" y="770" width="110" height="40" as="geometry" />
        </mxCell>
        <mxCell id="lQseuszwsxJTJ84V4q3q-159" value="Clock&lt;span style=&quot;color: rgba(0, 0, 0, 0); font-family: monospace; font-size: 0px; text-align: start; text-wrap-mode: nowrap;&quot;&gt;%3CmxGraphModel%3E%3Croot%3E%3CmxCell%20id%3D%220%22%2F%3E%3CmxCell%20id%3D%221%22%20parent%3D%220%22%2F%3E%3CmxCell%20id%3D%222%22%20value%3D%22Clock%22%20style%3D%22text%3Bhtml%3D1%3Balign%3Dcenter%3BverticalAlign%3Dmiddle%3BwhiteSpace%3Dwrap%3Brounded%3D0%3B%22%20vertex%3D%221%22%20parent%3D%221%22%3E%3CmxGeometry%20x%3D%2295%22%20y%3D%22770%22%20width%3D%22110%22%20height%3D%2240%22%20as%3D%22geometry%22%2F%3E%3C%2FmxCell%3E%3C%2Froot%3E%3C%2FmxGraphModel%3E&lt;/span&gt;" style="text;html=1;align=center;verticalAlign=middle;whiteSpace=wrap;rounded=0;" vertex="1" parent="1">
          <mxGeometry x="711" width="60" height="30" as="geometry" />
        </mxCell>
        <mxCell id="lQseuszwsxJTJ84V4q3q-160" value="disLed" style="text;html=1;align=center;verticalAlign=middle;whiteSpace=wrap;rounded=0;" vertex="1" parent="1">
          <mxGeometry x="1490" y="265" width="60" height="30" as="geometry" />
        </mxCell>
        <mxCell id="lQseuszwsxJTJ84V4q3q-161" value="anLed" style="text;html=1;align=center;verticalAlign=middle;whiteSpace=wrap;rounded=0;" vertex="1" parent="1">
          <mxGeometry x="1490" y="226.25" width="60" height="30" as="geometry" />
        </mxCell>
        <mxCell id="lQseuszwsxJTJ84V4q3q-162" value="upMot &amp;amp; DownMot" style="text;html=1;align=center;verticalAlign=middle;whiteSpace=wrap;rounded=0;" vertex="1" parent="1">
          <mxGeometry x="1490" y="548.75" width="110" height="21.25" as="geometry" />
        </mxCell>
        <mxCell id="lQseuszwsxJTJ84V4q3q-163" value="puerta" style="text;html=1;align=center;verticalAlign=middle;whiteSpace=wrap;rounded=0;" vertex="1" parent="1">
          <mxGeometry x="1490" y="150" width="60" height="20" as="geometry" />
        </mxCell>
      </root>
    </mxGraphModel>
  </diagram>
</mxfile>
